<svg width="30" height="29" viewBox="0 0 30 29" fill="none" xmlns="http://www.w3.org/2000/svg">
<path d="M23.7 23.2C24.4691 23.2 25.2068 23.5055 25.7506 24.0494C26.2945 24.5932 26.6 25.3309 26.6 26.1C26.6 26.8691 26.2945 27.6068 25.7506 28.1506C25.2068 28.6945 24.4691 29 23.7 29C22.9309 29 22.1932 28.6945 21.6494 28.1506C21.1055 27.6068 20.8 26.8691 20.8 26.1C20.8 24.4905 22.0905 23.2 23.7 23.2ZM0.5 0H5.2415L6.6045 2.9H28.05C28.4346 2.9 28.8034 3.05277 29.0753 3.3247C29.3472 3.59662 29.5 3.96544 29.5 4.35C29.5 4.5965 29.4275 4.843 29.326 5.075L24.135 14.4565C23.642 15.341 22.685 15.95 21.5975 15.95H10.795L9.49 18.3135L9.4465 18.4875C9.4465 18.5836 9.48469 18.6758 9.55267 18.7438C9.62066 18.8118 9.71286 18.85 9.809 18.85H26.6V21.75H9.2C8.43087 21.75 7.69325 21.4445 7.14939 20.9006C6.60554 20.3568 6.3 19.6191 6.3 18.85C6.3 18.3425 6.4305 17.864 6.648 17.458L8.62 13.9055L3.4 2.9H0.5V0ZM9.2 23.2C9.96913 23.2 10.7068 23.5055 11.2506 24.0494C11.7945 24.5932 12.1 25.3309 12.1 26.1C12.1 26.8691 11.7945 27.6068 11.2506 28.1506C10.7068 28.6945 9.96913 29 9.2 29C8.43087 29 7.69325 28.6945 7.14939 28.1506C6.60554 27.6068 6.3 26.8691 6.3 26.1C6.3 24.4905 7.5905 23.2 9.2 23.2ZM22.25 13.05L26.281 5.8H7.953L11.375 13.05H22.25Z" fill="#005496"/>
</svg>
