<svg width="50" height="50" viewBox="0 0 50 50" fill="none" xmlns="http://www.w3.org/2000/svg">
<path d="M32.9017 43.6482C32.1984 44.5137 31.2446 45 30.25 45H12.75C11.7554 45 10.8016 44.5137 10.0983 43.6482C9.39509 42.7826 9 41.6087 9 40.3846V9.61538C9 8.39131 9.39509 7.21737 10.0983 6.35181C10.8016 5.48626 11.7554 5 12.75 5H30.25C31.2446 5 32.1984 5.48626 32.9017 6.35181C33.6049 7.21737 34 8.39131 34 9.61538V18M19 5.7H21.5H24" stroke="#005496" stroke-width="2" stroke-linecap="round" stroke-linejoin="round"/>
<path d="M19.4375 16.75C18.9472 16.75 18.4447 16.9225 18.0894 17.2778C17.735 17.6313 17.5625 18.1338 17.5625 18.625V37.375C17.5625 37.8653 17.735 38.3678 18.0903 38.7231C18.4447 39.0775 18.9472 39.25 19.4375 39.25H32.5625C33.0528 39.25 33.5553 39.0775 33.9106 38.7222C34.265 38.3678 34.4375 37.8653 34.4375 37.375V23.6931C34.4375 23.2028 34.1778 22.6713 33.8806 22.375L28.8125 17.3069C28.5162 17.0097 27.9847 16.75 27.4944 16.75H19.4375ZM19.4375 18.625H27.4944L32.5625 23.6931V37.375H19.4375V18.625ZM21.3125 27.0625V35.5H30.6875V27.0625H21.3125ZM23.1875 28.9375H28.8125V33.625H23.1875V28.9375Z" fill="#005496"/>
</svg>
