<svg width="50" height="50" viewBox="0 0 50 50" fill="none" xmlns="http://www.w3.org/2000/svg">
<path d="M39 12.5312V23.9434C39 28.8963 37.6348 33.3261 34.9072 37.2627C32.2393 41.1132 28.9376 43.6538 24.999 44.9492C21.0616 43.6564 17.7605 41.1149 15.0928 37.2646C12.3653 33.3281 11 28.8978 11 23.9434V12.5312L25 7.07324L39 12.5312ZM38.8574 12.6914L38.2188 12.4434L25.3613 7.45605L25 7.31641L24.6387 7.45605L11.7812 12.4434L11.1426 12.6914V23.9434C11.1426 28.6446 12.4119 32.9369 14.9502 36.7939C17.4855 40.6463 20.73 43.2662 24.6855 44.5762L25 44.6807L25.3145 44.5762C29.2697 43.2663 32.5144 40.6485 35.0498 36.7959C37.588 32.9389 38.8574 28.6465 38.8574 23.9453V12.6914Z" fill="#005496" stroke="#005496" stroke-width="2"/>
<path d="M21 24.7993L24.3868 28.3978L30.2912 23" stroke="#005496" stroke-width="2" stroke-linecap="round" stroke-linejoin="round"/>
</svg>
