<svg width="50" height="50" viewBox="0 0 50 50" fill="none" xmlns="http://www.w3.org/2000/svg">
<path d="M6 41.0588C6 38.4378 7.00089 35.9242 8.78249 34.0709C10.5641 32.2176 12.9804 31.1765 15.5 31.1765H34.5C37.0196 31.1765 39.4359 32.2176 41.2175 34.0709C42.9991 35.9242 44 38.4378 44 41.0588C44 42.3693 44 43.5294 44 46C42.8125 46 40.5098 46 39.25 46H10.75C9.49022 46 7.1875 46 6.0007 46C6 44.7647 6 42.3693 6 41.0588Z" stroke="#005496" stroke-width="2" stroke-linejoin="round"/>
<path d="M25.0006 26.2353C31.2966 26.2353 36.4006 21.2577 36.4006 15.1176C36.4006 8.97754 31.2966 4 25.0006 4C18.7045 4 13.6006 8.97754 13.6006 15.1176C13.6006 21.2577 18.7045 26.2353 25.0006 26.2353Z" stroke="#005496" stroke-width="2"/>
</svg>
