<svg width="50" height="50" viewBox="0 0 50 50" fill="none" xmlns="http://www.w3.org/2000/svg">
<path d="M4.16699 25C4.16699 36.5063 13.4941 45.8334 25.0003 45.8334C36.5066 45.8334 45.8337 36.5063 45.8337 25C45.8337 13.4938 36.5066 4.16669 25.0003 4.16669C13.4941 4.16669 4.16699 13.4938 4.16699 25Z" stroke="#005496" stroke-width="2" stroke-linecap="round" stroke-linejoin="round"/>
<path d="M27.0837 4.27087C27.0837 4.27087 33.3337 12.5 33.3337 25C33.3337 37.5 27.0837 45.7292 27.0837 45.7292M22.917 45.7292C22.917 45.7292 16.667 37.5 16.667 25C16.667 12.5 22.917 4.27087 22.917 4.27087M5.47949 32.2917H44.5212M5.47949 17.7084H44.5212" stroke="#005496" stroke-width="2" stroke-linecap="round" stroke-linejoin="round"/>
</svg>
