<svg width="50" height="50" viewBox="0 0 50 50" fill="none" xmlns="http://www.w3.org/2000/svg">
<path d="M9.99957 23.5005C9.99979 20.4335 10 16.0382 9.99995 12.0005C9.99995 12.0005 9.63476 8.72175 11.5 7C13.2218 5.4107 16 5.50048 16 5.50048C23 5.50005 26.3611 5.50048 33 5.50048C33 5.50048 36.6251 5.5124 38.5 7.5C40.2686 9.37491 40 12 40 12C40 16.452 39.9967 23.5005 39.9967 23.5005M9.99957 17.5005C9.99957 17.5005 5.5 19.0004 5.5 22.0005C5.5 25.0005 5.5 40.7505 5.5 40.7505C5.5 42.8214 7.20046 44.5005 9.29838 44.5005H40.7016C42.7995 44.5005 44.5 42.8214 44.5 40.7505C44.5 40.7505 44.4963 25.0005 44.4963 22.0005C44.4963 19.0004 39.9967 17.5005 39.9967 17.5005" stroke="#005496" stroke-width="2" stroke-linecap="round" stroke-linejoin="round"/>
<path d="M38.5651 38.1418L26.0839 29.7745C25.7389 29.5323 25.3144 29.4007 24.8773 29.4007C24.4403 29.4007 24.0157 29.5323 23.6707 29.7745L11.4347 38.1418M29.4625 31.8104L43.6521 20.7614M5.92383 20.7614L20.537 31.9582" stroke="#005496" stroke-width="2" stroke-linecap="round" stroke-linejoin="round"/>
<g clip-path="url(#clip0_1845_258)">
<path fill-rule="evenodd" clip-rule="evenodd" d="M18.75 11C18.2859 11 17.8408 11.1844 17.5126 11.5126C17.1844 11.8408 17 12.2859 17 12.75V16.25C17 17.216 17.784 18 18.75 18H22.25C22.7141 18 23.1592 17.8156 23.4874 17.4874C23.8156 17.1592 24 16.7141 24 16.25V12.75C24 12.2859 23.8156 11.8408 23.4874 11.5126C23.1592 11.1844 22.7141 11 22.25 11H18.75ZM18.5 12.75C18.5 12.6837 18.5263 12.6201 18.5732 12.5732C18.6201 12.5263 18.6837 12.5 18.75 12.5H22.25C22.3163 12.5 22.3799 12.5263 22.4268 12.5732C22.4737 12.6201 22.5 12.6837 22.5 12.75V16.25C22.5 16.3163 22.4737 16.3799 22.4268 16.4268C22.3799 16.4737 22.3163 16.5 22.25 16.5H18.75C18.6837 16.5 18.6201 16.4737 18.5732 16.4268C18.5263 16.3799 18.5 16.3163 18.5 16.25V12.75ZM18.75 20C18.2859 20 17.8408 20.1844 17.5126 20.5126C17.1844 20.8408 17 21.2859 17 21.75V25.25C17 26.216 17.784 27 18.75 27H22.25C22.7141 27 23.1592 26.8156 23.4874 26.4874C23.8156 26.1592 24 25.7141 24 25.25V21.75C24 21.2859 23.8156 20.8408 23.4874 20.5126C23.1592 20.1844 22.7141 20 22.25 20H18.75ZM18.5 21.75C18.5 21.6837 18.5263 21.6201 18.5732 21.5732C18.6201 21.5263 18.6837 21.5 18.75 21.5H22.25C22.3163 21.5 22.3799 21.5263 22.4268 21.5732C22.4737 21.6201 22.5 21.6837 22.5 21.75V25.25C22.5 25.3163 22.4737 25.3799 22.4268 25.4268C22.3799 25.4737 22.3163 25.5 22.25 25.5H18.75C18.6837 25.5 18.6201 25.4737 18.5732 25.4268C18.5263 25.3799 18.5 25.3163 18.5 25.25V21.75ZM26 12.75C26 11.784 26.784 11 27.75 11H31.25C32.216 11 33 11.784 33 12.75V16.25C33 16.7141 32.8156 17.1592 32.4874 17.4874C32.1592 17.8156 31.7141 18 31.25 18H27.75C27.2859 18 26.8408 17.8156 26.5126 17.4874C26.1844 17.1592 26 16.7141 26 16.25V12.75ZM27.75 12.5C27.6837 12.5 27.6201 12.5263 27.5732 12.5732C27.5263 12.6201 27.5 12.6837 27.5 12.75V16.25C27.5 16.388 27.612 16.5 27.75 16.5H31.25C31.3163 16.5 31.3799 16.4737 31.4268 16.4268C31.4737 16.3799 31.5 16.3163 31.5 16.25V12.75C31.5 12.6837 31.4737 12.6201 31.4268 12.5732C31.3799 12.5263 31.3163 12.5 31.25 12.5H27.75ZM20.49 13.5C20.2248 13.5 19.9704 13.6054 19.7829 13.7929C19.5954 13.9804 19.49 14.2348 19.49 14.5V14.51C19.49 14.7752 19.5954 15.0296 19.7829 15.2171C19.9704 15.4046 20.2248 15.51 20.49 15.51H20.5C20.7652 15.51 21.0196 15.4046 21.2071 15.2171C21.3946 15.0296 21.5 14.7752 21.5 14.51V14.5C21.5 14.2348 21.3946 13.9804 21.2071 13.7929C21.0196 13.6054 20.7652 13.5 20.5 13.5H20.49ZM29.49 13.5C29.2248 13.5 28.9704 13.6054 28.7829 13.7929C28.5954 13.9804 28.49 14.2348 28.49 14.5V14.51C28.49 14.7752 28.5954 15.0296 28.7829 15.2171C28.9704 15.4046 29.2248 15.51 29.49 15.51H29.5C29.7652 15.51 30.0196 15.4046 30.2071 15.2171C30.3946 15.0296 30.5 14.7752 30.5 14.51V14.5C30.5 14.2348 30.3946 13.9804 30.2071 13.7929C30.0196 13.6054 29.7652 13.5 29.5 13.5H29.49ZM20.49 22.5C20.2248 22.5 19.9704 22.6054 19.7829 22.7929C19.5954 22.9804 19.49 23.2348 19.49 23.5V23.51C19.49 23.7752 19.5954 24.0296 19.7829 24.2171C19.9704 24.4046 20.2248 24.51 20.49 24.51H20.5C20.7652 24.51 21.0196 24.4046 21.2071 24.2171C21.3946 24.0296 21.5 23.7752 21.5 23.51V23.5C21.5 23.2348 21.3946 22.9804 21.2071 22.7929C21.0196 22.6054 20.7652 22.5 20.5 22.5H20.49ZM29.49 22.5C29.2248 22.5 28.9704 22.6054 28.7829 22.7929C28.5954 22.9804 28.49 23.2348 28.49 23.5V23.51C28.49 23.7752 28.5954 24.0296 28.7829 24.2171C28.9704 24.4046 29.2248 24.51 29.49 24.51H29.5C29.7652 24.51 30.0196 24.4046 30.2071 24.2171C30.3946 24.0296 30.5 23.7752 30.5 23.51V23.5C30.5 23.2348 30.3946 22.9804 30.2071 22.7929C30.0196 22.6054 29.7652 22.5 29.5 22.5H29.49ZM25.99 21C25.99 20.7348 26.0954 20.4804 26.2829 20.2929C26.4704 20.1054 26.7248 20 26.99 20H27C27.2652 20 27.5196 20.1054 27.7071 20.2929C27.8946 20.4804 28 20.7348 28 21V21.01C28 21.2752 27.8946 21.5296 27.7071 21.7171C27.5196 21.9046 27.2652 22.01 27 22.01H26.99C26.7248 22.01 26.4704 21.9046 26.2829 21.7171C26.0954 21.5296 25.99 21.2752 25.99 21.01V21ZM31.99 20C31.7248 20 31.4704 20.1054 31.2829 20.2929C31.0954 20.4804 30.99 20.7348 30.99 21V21.01C30.99 21.2752 31.0954 21.5296 31.2829 21.7171C31.4704 21.9046 31.7248 22.01 31.99 22.01H32C32.2652 22.01 32.5196 21.9046 32.7071 21.7171C32.8946 21.5296 33 21.2752 33 21.01V21C33 20.7348 32.8946 20.4804 32.7071 20.2929C32.5196 20.1054 32.2652 20 32 20H31.99ZM30.99 26C30.99 25.7348 31.0954 25.4804 31.2829 25.2929C31.4704 25.1054 31.7248 25 31.99 25H32C32.2652 25 32.5196 25.1054 32.7071 25.2929C32.8946 25.4804 33 25.7348 33 26V26.01C33 26.2752 32.8946 26.5296 32.7071 26.7171C32.5196 26.9046 32.2652 27.01 32 27.01H31.99C31.7248 27.01 31.4704 26.9046 31.2829 26.7171C31.0954 26.5296 30.99 26.2752 30.99 26.01V26ZM26.99 25C26.7248 25 26.4704 25.1054 26.2829 25.2929C26.0954 25.4804 25.99 25.7348 25.99 26V26.01C25.99 26.2752 26.0954 26.5296 26.2829 26.7171C26.4704 26.9046 26.7248 27.01 26.99 27.01H27C27.2652 27.01 27.5196 26.9046 27.7071 26.7171C27.8946 26.5296 28 26.2752 28 26.01V26C28 25.7348 27.8946 25.4804 27.7071 25.2929C27.5196 25.1054 27.2652 25 27 25H26.99Z" fill="#005496"/>
</g>
<defs>
<clipPath id="clip0_1845_258">
<rect width="20" height="20" fill="white" transform="translate(16 7)"/>
</clipPath>
</defs>
</svg>
