<svg width="50" height="50" viewBox="0 0 50 50" fill="none" xmlns="http://www.w3.org/2000/svg">
<path d="M7.4846 19.1089C8.57299 19.1089 9.15871 18.5018 9.15871 17.3928V12.4553C9.15871 10.2786 10.3301 9.16963 12.423 9.16963H17.4873C18.5757 9.16963 19.1819 8.56249 19.1819 7.4741C19.1819 6.40713 18.5748 5.79999 17.4873 5.79999H12.3605C8.00781 5.79999 5.78906 7.95535 5.78906 12.2661V17.3937C5.78906 18.5027 6.39621 19.1089 7.4846 19.1089ZM42.515 19.1089C43.6239 19.1089 44.2105 18.5018 44.2105 17.3928V12.2661C44.2105 7.95535 42.0337 5.79999 37.6391 5.79999H32.5328C31.4239 5.79999 30.8176 6.40713 30.8176 7.4741C30.8176 8.56249 31.4248 9.16963 32.5328 9.16963H37.5971C39.648 9.16963 40.8408 10.2786 40.8408 12.4553V17.3928C40.8408 18.5027 41.448 19.1089 42.515 19.1089ZM24.0998 23.1893V15.8866C24.0998 15.3848 23.7025 14.9661 23.1792 14.9661H15.8971C15.3739 14.9661 14.9757 15.3839 14.9757 15.8866V23.1902C14.9757 23.692 15.3739 24.0902 15.8971 24.0902H23.1792C23.7025 24.0902 24.0998 23.6911 24.0998 23.1893ZM27.7203 16.7875H33.2025V22.2696H27.7203V16.7875ZM31.6132 20.6803V18.3982H29.3319V20.6795L31.6132 20.6803ZM20.6891 20.6803V18.3982H18.3873V20.6795L20.6891 20.6803ZM16.7962 27.7321H22.2792V33.2143H16.7971L16.7962 27.7321ZM34.7516 28.4428V26.1625H32.4703V28.4437L34.7516 28.4428ZM28.4525 28.4428V26.1625H26.1712V28.4437L28.4525 28.4428ZM20.6891 31.6036V29.3214H18.3873V31.6018L20.6891 31.6036ZM31.6123 31.6036V29.3214H29.3105V31.6018L31.6123 31.6036ZM32.5328 44.2009H37.64C42.0337 44.2009 44.2105 42.0241 44.2105 37.7134V32.6071C44.2105 31.4973 43.6033 30.8911 42.515 30.8911C41.4266 30.8911 40.8408 31.4982 40.8408 32.6071V37.5446C40.8408 39.7214 39.648 40.8303 37.5971 40.8303H32.5328C31.4239 40.8303 30.8176 41.4375 30.8176 42.5259C30.8176 43.5928 31.4248 44.2009 32.5328 44.2009ZM12.3605 44.2H17.4873C18.5757 44.2 19.1819 43.5928 19.1819 42.5259C19.1819 41.4375 18.5748 40.8312 17.4873 40.8312H12.423C10.3301 40.8312 9.15871 39.7214 9.15871 37.5455V32.6071C9.15871 31.4973 8.55156 30.8911 7.4846 30.8911C6.37567 30.8911 5.78906 31.4982 5.78906 32.6071V37.7125C5.78906 42.0446 8.00781 44.2 12.3605 44.2ZM28.4525 34.7625V32.4812H26.1712V34.7625H28.4525ZM34.7516 34.7625V32.4812H32.4703V34.7625H34.7516ZM35.0239 23.1902V15.8866C35.0239 15.3848 34.6257 14.9661 34.1025 14.9661H26.8212C26.298 14.9661 25.9007 15.3839 25.9007 15.8866V23.1902C25.9007 23.692 26.298 24.0902 26.8203 24.0902H34.1033C34.6266 24.0902 35.0239 23.692 35.0239 23.1902ZM16.7962 16.7857H22.2792V22.2678H16.7971L16.7962 16.7857ZM24.0998 34.1125V26.8089C24.0998 26.3071 23.7025 25.9098 23.1792 25.9098H15.8971C15.3739 25.9098 14.9757 26.3071 14.9757 26.8089V34.1125C14.9757 34.6152 15.3739 35.033 15.8971 35.033H23.1792C23.7025 35.033 24.0998 34.6152 24.0998 34.1125Z" fill="#005496"/>
</svg>
