<svg width="50" height="50" viewBox="0 0 50 50" fill="none" xmlns="http://www.w3.org/2000/svg">
<path d="M23.2714 5.40785C23.5404 5.11234 23.8681 4.87626 24.2336 4.71471C24.5991 4.55317 24.9943 4.46973 25.3939 4.46973C25.7936 4.46973 26.1888 4.55317 26.5543 4.71471C26.9198 4.87626 27.2475 5.11234 27.5165 5.40785L28.9803 7.0152C29.2646 7.32723 29.6141 7.57272 30.0041 7.73421C30.394 7.8957 30.8148 7.9692 31.2364 7.94948L33.4077 7.84902C33.8067 7.83022 34.2053 7.89491 34.5779 8.03896C34.9504 8.183 35.2888 8.40323 35.5714 8.68555C35.854 8.96787 36.0746 9.30607 36.219 9.6785C36.3634 10.0509 36.4284 10.4494 36.41 10.8484L36.3081 13.0212C36.2884 13.4428 36.3619 13.8636 36.5234 14.2536C36.6849 14.6435 36.9304 14.993 37.2424 15.2773L38.8498 16.7411C39.1453 17.0101 39.3814 17.3378 39.5429 17.7033C39.7044 18.0689 39.7879 18.4641 39.7879 18.8637C39.7879 19.2633 39.7044 19.6585 39.5429 20.024C39.3814 20.3895 39.1453 20.7172 38.8498 20.9862L37.2424 22.4501C36.9304 22.7343 36.6849 23.0838 36.5234 23.4738C36.3619 23.8637 36.2884 24.2845 36.3081 24.7061L36.4086 26.8775C36.4274 27.2765 36.3627 27.675 36.2187 28.0476C36.0746 28.4202 35.8544 28.7586 35.5721 29.0412C35.2897 29.3237 34.9515 29.5443 34.5791 29.6887C34.2067 29.8331 33.8082 29.8982 33.4092 29.8798L31.2364 29.7779C30.8148 29.7581 30.394 29.8316 30.0041 29.9931C29.6141 30.1546 29.2646 30.4001 28.9803 30.7121L27.5165 32.3195C27.2475 32.615 26.9198 32.8511 26.5543 33.0126C26.1888 33.1742 25.7936 33.2576 25.3939 33.2576C24.9943 33.2576 24.5991 33.1742 24.2336 33.0126C23.8681 32.8511 23.5404 32.615 23.2714 32.3195L21.8075 30.7121C21.5233 30.4001 21.1738 30.1546 20.7838 29.9931C20.3939 29.8316 19.9731 29.7581 19.5515 29.7779L17.3802 29.8783C16.9811 29.8971 16.5826 29.8324 16.21 29.6884C15.8375 29.5443 15.499 29.3241 15.2165 29.0418C14.9339 28.7595 14.7133 28.4213 14.5689 28.0488C14.4245 27.6764 14.3594 27.2779 14.3779 26.8789L14.4797 24.7061C14.4995 24.2845 14.426 23.8637 14.2645 23.4738C14.103 23.0838 13.8575 22.7343 13.5455 22.4501L11.9381 20.9862C11.6426 20.7172 11.4065 20.3895 11.245 20.024C11.0834 19.6585 11 19.2633 11 18.8637C11 18.4641 11.0834 18.0689 11.245 17.7033C11.4065 17.3378 11.6426 17.0101 11.9381 16.7411L13.5455 15.2773C13.8575 14.993 14.103 14.6435 14.2645 14.2536C14.426 13.8636 14.4995 13.4428 14.4797 13.0212L14.3793 10.8499C14.3605 10.4509 14.4252 10.0523 14.5692 9.67976C14.7133 9.30718 14.9335 8.96877 15.2158 8.68618C15.4981 8.40359 15.8363 8.18304 16.2088 8.03864C16.5812 7.89424 16.9797 7.82916 17.3787 7.84758L19.5515 7.94948C19.9731 7.9692 20.3939 7.8957 20.7838 7.73421C21.1738 7.57272 21.5233 7.32723 21.8075 7.0152L23.2714 5.40785Z" stroke="#005496" stroke-width="2"/>
<path d="M21.1611 18.8637L24.5479 22.4622L30.4523 17.0645" stroke="#005496" stroke-width="2" stroke-linecap="round" stroke-linejoin="round"/>
<path d="M34.3382 34.9243L35.6072 39.7879C36.4216 42.9121 36.8307 44.4743 35.9917 45.2152C35.1545 45.9561 33.6999 45.3197 30.7907 44.0455L26.4838 42.1591C25.7962 41.8591 25.4534 41.7076 25.0898 41.7076C24.7261 41.7076 24.3833 41.8591 23.6958 42.1591L19.3888 44.0455C16.4797 45.3182 15.0251 45.9561 14.1879 45.2152C13.3508 44.4743 13.758 42.9121 14.5724 39.7879L15.8414 34.9243" stroke="#005496" stroke-width="2" stroke-linecap="round" stroke-linejoin="round"/>
</svg>
