<svg width="50" height="50" viewBox="0 0 50 50" fill="none" xmlns="http://www.w3.org/2000/svg">
<path d="M14.0625 6.75H27.4902C28.0752 6.75 28.7323 7.03193 29.1631 7.37891L29.333 7.53125H29.334L37.7812 15.9785V15.9795C38.1941 16.3911 38.5625 17.1536 38.5625 17.8223V40.625C38.5625 41.3328 38.3125 42.0351 37.8311 42.5166C37.3478 42.9998 36.6452 43.25 35.9375 43.25H14.0625C13.3547 43.25 12.6524 43 12.1709 42.5186C11.6877 42.0353 11.4375 41.3327 11.4375 40.625V9.375C11.4375 8.75404 11.6291 8.13916 11.999 7.67383L12.1689 7.4834C12.6522 7.00017 13.3548 6.75 14.0625 6.75ZM32.3125 23.9375V37H17.6875V23.9375H32.3125ZM19.8125 34.875H30.1875V26.0625H19.8125V34.875ZM36.4375 17.6152L27.6973 8.875H13.5625V41.125H36.4375V17.6152Z" fill="#005496" stroke="#005496"/>
</svg>
