<svg width="50" height="50" viewBox="0 0 50 50" fill="none" xmlns="http://www.w3.org/2000/svg">
<path d="M24 6H26.5H29M17.75 45H35.25C36.2446 45 37.1984 44.5137 37.9016 43.6482C38.6049 42.7826 39 41.6087 39 40.3846V9.61538C39 8.39131 38.6049 7.21737 37.9016 6.35181C37.1984 5.48626 36.2446 5 35.25 5H17.75C16.7554 5 15.8016 5.48626 15.0983 6.35181C14.3951 7.21737 14 8.39131 14 9.61538V40.3846C14 41.6087 14.3951 42.7826 15.0983 43.6482C15.8016 44.5137 16.7554 45 17.75 45Z" stroke="#005496" stroke-width="2" stroke-linecap="round" stroke-linejoin="round"/>
<path d="M22 23.7992L25.3868 27.3977L31.2912 22" stroke="#005496" stroke-width="2" stroke-linecap="round" stroke-linejoin="round"/>
</svg>
