<svg width="25" height="25" viewBox="0 0 25 25" fill="none" xmlns="http://www.w3.org/2000/svg">
<path d="M15.1166 12.5L7.76661 19.85C7.51661 20.1 7.39561 20.3917 7.40361 20.725C7.41161 21.0584 7.54095 21.35 7.79161 21.6C8.04228 21.85 8.33395 21.975 8.66661 21.975C8.99928 21.975 9.29095 21.85 9.54161 21.6L17.2416 13.925C17.4416 13.725 17.5916 13.5 17.6916 13.25C17.7916 13 17.8416 12.75 17.8416 12.5C17.8416 12.25 17.7916 12 17.6916 11.75C17.5916 11.5 17.4416 11.275 17.2416 11.075L9.54161 3.37503C9.29161 3.12503 8.99561 3.00403 8.65361 3.01203C8.31161 3.02003 8.01595 3.14936 7.76661 3.40003C7.51728 3.6507 7.39228 3.94236 7.39161 4.27503C7.39095 4.6077 7.51595 4.89936 7.76661 5.15003L15.1166 12.5Z" fill="#005496"/>
</svg>
