<svg width="30" height="31" viewBox="0 0 30 31" fill="none" xmlns="http://www.w3.org/2000/svg">
<path d="M15 28C21.9037 28 27.5 22.4037 27.5 15.5C27.5 8.59625 21.9037 3 15 3C8.09625 3 2.5 8.59625 2.5 15.5C2.5 22.4037 8.09625 28 15 28Z" stroke="#005496" stroke-width="2"/>
<path d="M2.5 13.525C4.38458 12.6354 5.77833 12.5115 6.68125 13.1531C8.03562 14.1156 8.205 18.04 11.2863 16.165C14.3675 14.29 9.96688 13.525 10.9219 10.8088C11.8769 8.09188 15.005 10.2025 15.3156 7.22688C15.5235 5.24313 13.1506 4.48396 8.19687 4.94938" stroke="#005496" stroke-width="2"/>
<path d="M22.4999 5.5C18.9287 8.61792 17.6814 10.5006 18.7581 11.1481C20.3731 12.12 21.0581 10.7519 23.0293 11.1481C25.0006 11.5444 24.5731 14.2162 23.5368 14.2162C22.5006 14.2162 17.1312 13.5325 17.4018 16.6656C17.6724 19.7987 20.9018 20.2625 20.9018 22.0131C20.9018 23.1798 20.1872 24.9658 18.7581 27.3712M3.81494 21.0787C4.24097 20.8913 4.66934 20.7092 5.09994 20.5325C7.50411 19.5617 9.28828 19.3327 10.4524 19.8456C12.5099 20.7537 11.7187 22.5875 12.3637 23.2631C13.0074 23.9388 14.6174 23.7425 14.6174 25.0275C14.6174 25.8846 14.3295 26.8525 13.7537 27.9312" stroke="#005496" stroke-width="2" stroke-linecap="round"/>
</svg>
