<svg width="14" height="14" viewBox="0 0 14 14" fill="none" xmlns="http://www.w3.org/2000/svg">
<path d="M11.0837 12.25H4.66699V4.08331H11.0837M11.0837 2.91665H4.66699C4.35757 2.91665 4.06083 3.03956 3.84203 3.25836C3.62324 3.47715 3.50033 3.77389 3.50033 4.08331V12.25C3.50033 12.5594 3.62324 12.8561 3.84203 13.0749C4.06083 13.2937 4.35757 13.4166 4.66699 13.4166H11.0837C11.3931 13.4166 11.6898 13.2937 11.9086 13.0749C12.1274 12.8561 12.2503 12.5594 12.2503 12.25V4.08331C12.2503 3.77389 12.1274 3.47715 11.9086 3.25836C11.6898 3.03956 11.3931 2.91665 11.0837 2.91665ZM9.33366 0.583313H2.33366C2.02424 0.583313 1.72749 0.706229 1.5087 0.925022C1.28991 1.14381 1.16699 1.44056 1.16699 1.74998V9.91665H2.33366V1.74998H9.33366V0.583313Z" fill="#005496"/>
</svg>
