<svg width="21" height="20" viewBox="0 0 21 20" fill="none" xmlns="http://www.w3.org/2000/svg">
<path d="M8.39494 13.3333L16.0458 16.07C16.1743 16.1162 16.3116 16.1331 16.4475 16.1194C16.5834 16.1058 16.7145 16.0619 16.8313 15.9911C16.9481 15.9202 17.0475 15.8242 17.1224 15.7099C17.1973 15.5957 17.2457 15.4662 17.2641 15.3308L18.8249 3.53251C18.9199 2.81418 18.1758 2.27834 17.5191 2.59084L2.68661 9.67084C1.95328 10.0208 2.00828 11.0792 2.77494 11.3517L4.80828 12.075L5.91661 12.4642M11.3333 14.3833L9.67494 17.155C9.13328 17.8283 8.04244 17.4475 8.04244 16.5858V14.3667C8.04247 13.9479 8.20015 13.5445 8.48411 13.2367L11.7099 9.73668" stroke="currentColor" stroke-width="1.5" stroke-linecap="round" stroke-linejoin="round"/>
</svg>
