<svg width="30" height="30" viewBox="0 0 30 30" fill="none" xmlns="http://www.w3.org/2000/svg">
<path d="M10.35 6.8125L8.125 5.6875L9.7 2.5H20.2875L21.875 5.6875L19.65 6.8L18.75 5H11.25L10.35 6.8125ZM23.275 10H17.6125L16.625 6.25H13.375L12.3875 10H6.725L5.125 13.1875L7.3625 14.3L8.275 12.5H21.725L22.625 14.3125L24.8625 13.2L23.275 10ZM22.2125 27.5H19.625L19.325 26.375L15 19.875L10.6625 26.375L10.375 27.5H7.7875L11.4 13.75H13.9875L13.5375 15.4375L15 17.625L16.45 15.4375L16.0125 13.75H18.6L22.2125 27.5ZM14.25 18.75L13.125 17.0625L11.65 22.6625L14.25 18.75ZM18.35 22.65L16.875 17.05L15.75 18.75L18.35 22.65Z" fill="#005496"/>
</svg>
