<svg width="35" height="35" viewBox="0 0 35 35" fill="none" xmlns="http://www.w3.org/2000/svg">
<path fill-rule="evenodd" clip-rule="evenodd" d="M23.3327 13.125C23.3327 14.6721 22.7181 16.1558 21.6241 17.2498C20.5302 18.3438 19.0464 18.9583 17.4993 18.9583C15.9523 18.9583 14.4685 18.3438 13.3746 17.2498C12.2806 16.1558 11.666 14.6721 11.666 13.125C11.666 11.5779 12.2806 10.0942 13.3746 9.00022C14.4685 7.90625 15.9523 7.29167 17.4993 7.29167C19.0464 7.29167 20.5302 7.90625 21.6241 9.00022C22.7181 10.0942 23.3327 11.5779 23.3327 13.125ZM20.416 13.125C20.416 13.8986 20.1087 14.6404 19.5617 15.1874C19.0148 15.7344 18.2729 16.0417 17.4993 16.0417C16.7258 16.0417 15.9839 15.7344 15.437 15.1874C14.89 14.6404 14.5827 13.8986 14.5827 13.125C14.5827 12.3515 14.89 11.6096 15.437 11.0626C15.9839 10.5156 16.7258 10.2083 17.4993 10.2083C18.2729 10.2083 19.0148 10.5156 19.5617 11.0626C20.1087 11.6096 20.416 12.3515 20.416 13.125Z" fill="currentColor"/>
<path fill-rule="evenodd" clip-rule="evenodd" d="M17.4997 1.45834C8.6403 1.45834 1.45801 8.64063 1.45801 17.5C1.45801 26.3594 8.6403 33.5417 17.4997 33.5417C26.359 33.5417 33.5413 26.3594 33.5413 17.5C33.5413 8.64063 26.359 1.45834 17.4997 1.45834ZM4.37467 17.5C4.37467 20.5479 5.41447 23.3538 7.15717 25.5821C8.38105 23.9749 9.95994 22.6723 11.7705 21.7763C13.5811 20.8802 15.5743 20.4149 17.5945 20.4167C19.5885 20.4148 21.5566 20.8681 23.3489 21.742C25.1413 22.6159 26.7105 23.8874 27.937 25.4596C29.2005 23.8023 30.0513 21.868 30.4189 19.8167C30.7865 17.7654 30.6603 15.656 30.0508 13.6631C29.4413 11.6702 28.366 9.85111 26.9139 8.35631C25.4618 6.8615 23.6746 5.73396 21.7002 5.06699C19.7258 4.40002 17.621 4.21279 15.5599 4.5208C13.4988 4.8288 11.5406 5.62318 9.84746 6.83821C8.1543 8.05323 6.77482 9.65398 5.82313 11.508C4.87145 13.362 4.37494 15.416 4.37467 17.5ZM17.4997 30.625C14.4867 30.6295 11.5646 29.593 9.22801 27.6908C10.1685 26.3444 11.4204 25.2451 12.877 24.4864C14.3337 23.7277 15.9521 23.3322 17.5945 23.3333C19.2164 23.332 20.8152 23.7177 22.2581 24.4583C23.701 25.1989 24.9465 26.2731 25.8909 27.5917C23.5361 29.5556 20.5659 30.6293 17.4997 30.625Z" fill="currentColor"/>
</svg>
