<svg class="unf-icon" viewBox="0 0 24 24" width="18" height="18" fill="var(--YN300, #FFD45F)" aria-hidden="true" style="display: inline-block; margin-right: 2px; vertical-align: middle;"><path d="M21.57 9.14a2.37 2.37 0 0 0-1.93-1.63L15.9 7l-1.68-3.4a2.38 2.38 0 0 0-4.27 0L8.27 7l-3.75.54a2.39 2.39 0 0 0-1.32 4.04l2.71 2.64L5.27 18a2.38 2.38 0 0 0 2.35 2.79 2.42 2.42 0 0 0 1.11-.27l3.35-1.76 3.35 1.76a2.41 2.41 0 0 0 2.57-.23 2.369 2.369 0 0 0 .89-2.29l-.64-3.73L21 11.58a2.38 2.38 0 0 0 .57-2.44Z"></path></svg>
<svg class="unf-icon" viewBox="0 0 24 24" width="18" height="18" fill="var(--YN300, #FFD45F)" aria-hidden="true" style="display: inline-block; margin-right: 2px; vertical-align: middle;"><path d="M21.57 9.14a2.37 2.37 0 0 0-1.93-1.63L15.9 7l-1.68-3.4a2.38 2.38 0 0 0-4.27 0L8.27 7l-3.75.54a2.39 2.39 0 0 0-1.32 4.04l2.71 2.64L5.27 18a2.38 2.38 0 0 0 2.35 2.79 2.42 2.42 0 0 0 1.11-.27l3.35-1.76 3.35 1.76a2.41 2.41 0 0 0 2.57-.23 2.369 2.369 0 0 0 .89-2.29l-.64-3.73L21 11.58a2.38 2.38 0 0 0 .57-2.44Z"></path></svg>
<svg class="unf-icon" viewBox="0 0 24 24" width="18" height="18" fill="var(--YN300, #FFD45F)" aria-hidden="true" style="display: inline-block; margin-right: 2px; vertical-align: middle;"><path d="M21.57 9.14a2.37 2.37 0 0 0-1.93-1.63L15.9 7l-1.68-3.4a2.38 2.38 0 0 0-4.27 0L8.27 7l-3.75.54a2.39 2.39 0 0 0-1.32 4.04l2.71 2.64L5.27 18a2.38 2.38 0 0 0 2.35 2.79 2.42 2.42 0 0 0 1.11-.27l3.35-1.76 3.35 1.76a2.41 2.41 0 0 0 2.57-.23 2.369 2.369 0 0 0 .89-2.29l-.64-3.73L21 11.58a2.38 2.38 0 0 0 .57-2.44Z"></path></svg>
<svg class="unf-icon" viewBox="0 0 24 24" width="18" height="18" fill="var(--YN300, #FFD45F)" aria-hidden="true" style="display: inline-block; margin-right: 2px; vertical-align: middle;"><path d="M21.57 9.14a2.37 2.37 0 0 0-1.93-1.63L15.9 7l-1.68-3.4a2.38 2.38 0 0 0-4.27 0L8.27 7l-3.75.54a2.39 2.39 0 0 0-1.32 4.04l2.71 2.64L5.27 18a2.38 2.38 0 0 0 2.35 2.79 2.42 2.42 0 0 0 1.11-.27l3.35-1.76 3.35 1.76a2.41 2.41 0 0 0 2.57-.23 2.369 2.369 0 0 0 .89-2.29l-.64-3.73L21 11.58a2.38 2.38 0 0 0 .57-2.44Z"></path></svg>
<svg class="unf-icon" viewBox="0 0 24 24" width="18" height="18" fill="var(--YN300, #FFD45F)" aria-hidden="true" style="display: inline-block; margin-right: 2px; vertical-align: middle;"><path d="M21.57 9.14a2.37 2.37 0 0 0-1.93-1.63L15.9 7l-1.68-3.4a2.38 2.38 0 0 0-4.27 0L8.27 7l-3.75.54a2.39 2.39 0 0 0-1.32 4.04l2.71 2.64L5.27 18a2.38 2.38 0 0 0 2.35 2.79 2.42 2.42 0 0 0 1.11-.27l3.35-1.76 3.35 1.76a2.41 2.41 0 0 0 2.57-.23 2.369 2.369 0 0 0 .89-2.29l-.64-3.73L21 11.58a2.38 2.38 0 0 0 .57-2.44Z"></path></svg>