<svg width="30" height="30" viewBox="0 0 30 30" fill="none" xmlns="http://www.w3.org/2000/svg">
<path d="M4.875 15C4.875 12.8625 6.6125 11.125 8.75 11.125H13.75V8.75H8.75C7.0924 8.75 5.50269 9.40848 4.33058 10.5806C3.15848 11.7527 2.5 13.3424 2.5 15C2.5 16.6576 3.15848 18.2473 4.33058 19.4194C5.50269 20.5915 7.0924 21.25 8.75 21.25H13.75V18.875H8.75C6.6125 18.875 4.875 17.1375 4.875 15ZM10 16.25H20V13.75H10V16.25ZM21.25 8.75H16.25V11.125H21.25C23.3875 11.125 25.125 12.8625 25.125 15C25.125 17.1375 23.3875 18.875 21.25 18.875H16.25V21.25H21.25C22.9076 21.25 24.4973 20.5915 25.6694 19.4194C26.8415 18.2473 27.5 16.6576 27.5 15C27.5 13.3424 26.8415 11.7527 25.6694 10.5806C24.4973 9.40848 22.9076 8.75 21.25 8.75Z" fill="currentColor"/>
</svg>
