<svg width="30" height="30" viewBox="0 0 30 30" fill="none" xmlns="http://www.w3.org/2000/svg">
<path d="M21.25 8.75C18.6325 8.75 16.7363 10.7087 14.9988 12.9325C13.2613 10.7087 11.3663 8.75 8.75002 8.75C5.30377 8.75 2.50002 11.5538 2.50002 15C2.49801 15.8202 2.65809 16.6326 2.97107 17.3907C3.28405 18.1488 3.74376 18.8376 4.32377 19.4175C4.90165 19.9998 5.58934 20.4616 6.34699 20.7761C7.10463 21.0907 7.91717 21.2517 8.73752 21.25H8.75252C11.3638 21.2438 13.2588 19.285 14.9975 17.0613C16.7363 19.2888 18.6325 21.25 21.25 21.25C24.6963 21.25 27.5 18.4462 27.5 15C27.5 11.5538 24.6963 8.75 21.25 8.75ZM8.74752 18.75L8.73752 20V18.75C7.73877 18.75 6.80002 18.36 6.09502 17.6525C5.57251 17.127 5.2172 16.4586 5.07381 15.7315C4.93043 15.0044 5.0054 14.2512 5.28927 13.5666C5.57314 12.8821 6.05322 12.2968 6.66906 11.8846C7.28489 11.4723 8.00894 11.2515 8.75002 11.25C10.4125 11.25 11.95 13.0475 13.4325 14.9975C11.9475 16.9463 10.41 18.7462 8.74752 18.75ZM21.25 18.75C19.5875 18.75 18.0488 16.95 16.5638 14.9975C18.0475 13.0475 19.585 11.25 21.25 11.25C23.3175 11.25 25 12.9325 25 15C25 17.0675 23.3175 18.75 21.25 18.75Z" fill="#005496"/>
</svg>
